<?xml version="1.0" standalone="no"?>
<!DOCTYPE svg PUBLIC "-//W3C//DTD SVG 20010904//EN"
 "http://www.w3.org/TR/2001/REC-SVG-20010904/DTD/svg10.dtd">
<svg version="1.0" xmlns="http://www.w3.org/2000/svg"
 width="300.000000pt" height="300.000000pt" viewBox="0 0 300.000000 300.000000"
 preserveAspectRatio="xMidYMid meet">

<g transform="translate(0.000000,300.000000) scale(0.100000,-0.100000)"
fill="#000000" stroke="none">
<path d="M0 1500 l0 -1500 1500 0 1500 0 0 1500 0 1500 -1500 0 -1500 0 0
-1500z m1044 814 c54 -10 120 -30 161 -50 77 -36 139 -88 128 -107 -26 -45
-197 -266 -203 -262 -4 2 -1 28 7 57 29 111 -25 238 -127 293 -49 26 -64 30
-140 29 -63 0 -94 -4 -120 -18 -94 -51 -134 -106 -169 -238 -25 -93 -26 -137
-5 -248 42 -217 184 -391 342 -416 37 -6 42 -4 82 40 24 26 70 63 102 83 l58
36 0 72 c0 100 -5 105 -125 115 -55 5 -110 9 -122 10 -13 0 -23 5 -23 10 0 6
102 10 286 10 259 0 329 -7 245 -23 -46 -9 -61 -32 -61 -91 l0 -53 78 -6 c42
-3 100 -13 128 -22 60 -20 150 -85 148 -107 -2 -17 -165 -241 -171 -234 -2 2
1 31 8 64 23 111 -30 215 -127 252 -29 10 -54 16 -58 13 -3 -4 -6 -44 -6 -90
0 -93 12 -113 71 -123 16 -3 30 -9 29 -15 0 -6 -59 -9 -158 -8 l-157 3 3 42 4
43 -24 -20 c-46 -39 -48 -45 -48 -158 0 -165 43 -279 141 -374 68 -65 126 -87
234 -87 96 0 164 21 212 66 39 37 39 10 0 -30 -162 -166 -489 -145 -665 42
-79 85 -104 149 -110 276 -2 66 1 108 11 138 l15 42 -62 0 c-129 0 -257 53
-350 146 -109 110 -156 223 -156 374 1 180 73 318 217 412 103 68 205 102 377
127 4 0 49 -6 100 -15z m481 -104 c4 -7 12 -7 25 0 10 5 30 10 44 10 23 0 26
-4 26 -35 0 -31 -3 -35 -25 -35 -48 0 -65 -31 -65 -121 l0 -80 -42 3 -43 3 -3
119 c-1 66 0 126 2 133 6 15 72 18 81 3z m215 -78 c0 -95 8 -112 49 -112 48 0
61 25 61 117 l0 84 41 -3 40 -3 0 -130 0 -130 -31 -3 c-17 -2 -37 2 -45 8 -8
6 -16 7 -19 2 -11 -19 -74 -23 -110 -8 -53 22 -64 48 -69 158 -2 54 -2 100 1
103 3 3 23 5 44 5 l38 0 0 -88z m338 76 c9 -9 15 -9 24 0 17 17 93 15 128 -3
39 -20 61 -65 62 -125 1 -39 -4 -56 -26 -84 -32 -43 -92 -63 -138 -47 -48 17
-50 15 -46 -41 l3 -53 -40 0 -40 0 -3 183 -2 182 33 0 c18 0 38 -5 45 -12z
m483 -11 c65 -44 76 -143 23 -207 -62 -73 -204 -56 -249 30 -19 36 -19 97 0
130 37 68 157 93 226 47z m-184 -666 c127 -27 203 -108 203 -217 0 -117 -67
-206 -190 -254 -19 -7 -36 -14 -38 -16 -2 -1 38 -58 88 -127 82 -114 168 -207
191 -207 5 0 9 -8 9 -17 0 -16 -11 -18 -119 -15 -102 3 -120 6 -123 20 -3 9
-54 86 -113 170 l-108 152 -69 0 -68 0 0 -151 0 -150 36 -15 c20 -8 34 -18 31
-21 -7 -6 -307 -6 -314 1 -3 2 11 12 31 20 l36 15 0 391 0 392 -40 15 c-22 9
-38 19 -36 22 8 12 529 5 593 -8z"/>
<path d="M1125 1410 c-9 -16 -12 -30 -7 -30 12 0 42 34 42 48 0 22 -19 12 -35
-18z"/>
<path d="M2112 2142 c-34 -26 -35 -87 -3 -113 30 -24 56 -24 81 1 30 30 27 83
-6 109 -32 25 -42 26 -72 3z"/>
<path d="M2436 2139 c-33 -26 -36 -79 -6 -109 24 -24 48 -25 78 -4 33 23 31
96 -3 118 -31 21 -37 20 -69 -5z"/>
<path d="M2039 1506 c-2 -2 -3 -101 -1 -219 l3 -215 27 -6 c15 -3 72 -8 127
-12 117 -6 155 7 190 66 27 48 29 228 2 277 -48 89 -100 113 -242 113 -56 0
-104 -2 -106 -4z"/>
</g>
</svg>
